<?xml version="1.0" encoding="utf-8"?>
<!-- Generator: Adobe Illustrator 16.0.0, SVG Export Plug-In . SVG Version: 6.00 Build 0)  -->
<!DOCTYPE svg PUBLIC "-//W3C//DTD SVG 1.1//EN" "http://www.w3.org/Graphics/SVG/1.1/DTD/svg11.dtd">
<svg version="1.1" xmlns="http://www.w3.org/2000/svg" xmlns:xlink="http://www.w3.org/1999/xlink" x="0px" y="0px"
	 width="1248.125px" height="1818.901px" viewBox="0 0 1248.125 1818.901" enable-background="new 0 0 1248.125 1818.901"
	 xml:space="preserve">
<g id="Guides">
</g>
<g id="Icons">
	<path id="Github__x28_alt_x29__3_" fill="#FFFFFF" stroke="#DBDCE2" stroke-miterlimit="10" d="M223.953,638.5
		c1.17,2.657,1.928,7.07,0.797,10.301c4.625,3.949,6.215,13.549,3.982,21.394c6.592,0.503,14.443-0.241,19.512,1.782
		c-4.738-0.609-11.209-1.804-17.32-1.388c-1.158,0.079-2.873-0.044-2.789,1.585c7.074,0.556,14.104,1.16,19.912,2.973
		c-5.76-0.941-12.754-2.374-19.912-2.574c-2.957,5.835-8.908,8.703-17.123,9.307c0.883,1.921,2.574,2.653,2.988,5.744
		c0.615,4.618-0.965,11.381,0.594,14.459c0.748,1.475,1.967,1.514,2.789,2.775c-2.012,2.381-7-0.267-7.568-2.775
		c-0.973-4.295,1.482-10.954-1.193-13.865c0.189,4.684-1.107,11.264,0.199,15.449c0.516,1.646,2.002,2.281,1.594,3.765
		c-9.352,0.95-5.445-12.104-6.973-19.809c-1.41,0.1-0.791,2.113-0.795,2.972c-0.041,7.524,1.539,17.844-6.57,16.837
		c-0.238-1.581,1.088-2.119,1.592-3.563c1.48-4.234-0.277-10.542,0.402-15.651c-3.096,2.333,0.324,10.48-1.594,14.657
		c-1.105,2.404-4.666,3.45-7.367,2.377c0.352-1.79,2.201-1.501,2.984-3.169c1.096-2.325,0.008-5.674,0.4-9.111
		c-5.73,1.143-10.174-0.166-12.348-3.764c-0.973-1.615-1.215-3.52-2.391-4.951c-1.17-1.432-3.039-1.625-3.582-3.564
		c7.096-1.708,7.367,7.302,13.74,7.525c1.953,0.071,2.969-0.564,4.777-0.989c0.506-2.272,1.59-3.966,3.186-5.153
		c-7.928-1.085-14.477-3.554-17.521-9.504c-7.209,0.355-13.805,1.317-19.914,2.771c5.545-2.014,12.385-2.736,19.715-2.973
		c-0.432-2.596-4.219-1.882-6.57-1.782c-4.369,0.193-9.869,0.736-13.342,1.388c5.035-1.795,12.098-1.571,18.918-1.585
		c-2.086-6.54-1.363-16.929,3.186-20.798c-1.289-3.249-0.889-8.563,0.797-11.093c5.078,0.228,8.158,2.443,11.35,4.557
		c3.957-1.125,8.117-1.685,13.539-1.387c2.281,0.126,4.652,1.151,6.369,0.989c1.686-0.158,3.543-2.049,5.178-2.771
		C219.712,638.947,221.515,638.588,223.953,638.5z"/>
</g>
</svg>
