<?xml version="1.0" encoding="utf-8"?>
<!-- Generator: Adobe Illustrator 16.0.0, SVG Export Plug-In . SVG Version: 6.00 Build 0)  -->
<!DOCTYPE svg PUBLIC "-//W3C//DTD SVG 1.1//EN" "http://www.w3.org/Graphics/SVG/1.1/DTD/svg11.dtd">
<svg version="1.1" xmlns="http://www.w3.org/2000/svg" xmlns:xlink="http://www.w3.org/1999/xlink" x="0px" y="0px"
	 width="1248.125px" height="1818.901px" viewBox="0 0 1248.125 1818.901" enable-background="new 0 0 1248.125 1818.901"
	 xml:space="preserve">
<g id="Guides">
</g>
<g id="Icons">
	<path id="LinkedIn__x28_alt_x29__3_" fill="#FFFFFF" stroke="#DBDCE2" stroke-miterlimit="10" d="M241.269,868.4h-76.703
		c-3.672,0-6.65,2.886-6.65,6.448v77.101c0,3.562,2.979,6.451,6.65,6.451h76.703c3.674,0,6.646-2.89,6.646-6.451v-77.101
		C247.916,871.287,244.943,868.4,241.269,868.4z M185.201,943.736h-13.598v-40.634h13.598V943.736z M178.404,897.551h-0.092
		c-4.559,0-7.516-3.119-7.516-7.023c0-3.983,3.043-7.017,7.693-7.017c4.652,0,7.512,3.033,7.602,7.017
		C186.091,894.433,183.142,897.551,178.404,897.551z M234.22,943.736h-13.594v-21.74c0-5.464-1.971-9.191-6.887-9.191
		c-3.76,0-5.992,2.515-6.973,4.942c-0.363,0.868-0.453,2.08-0.453,3.292v22.696h-13.592c0,0,0.178-36.823,0-40.634h13.592v5.761
		c1.805-2.768,5.029-6.717,12.25-6.717c8.947,0,15.656,5.804,15.656,18.291V943.736z M206.226,908.991
		c0.025-0.038,0.057-0.084,0.088-0.128v0.128H206.226z"/>
</g>
</svg>
